# xmcd
#
# Track frame offsets: 
#        150
#        23538
#        39240
#        76994
#        104212
#        129603
#        156712
#        183709
#
# Disc length: 3239 seconds
#
# Revision: 0
# Processed by: cddbd v1.5.1PL0 Copyright (c) Steve Scherf et al.
# Submitted via: ExactAudioCopy v0.95a5
#
DISCID=690ca508
DTITLE=Live at the Grand - Pat Ramsey and The Blues Disciples
DYEAR=1999
DGENRE=Blues
TTITLE0=Build Me A Woman
TTITLE1=Got Love If You Want It (Texas)
TTITLE2=Love Her With A Feeling
TTITLE3=One Step At A Time
TTITLE4=Chitlins Con Carne
TTITLE5=Highway 49
TTITLE6=I Love You
TTITLE7=Allergic To Work - Dead Shrimp Blues
EXTD=
EXTT0=
EXTT1=
EXTT2=
EXTT3=
EXTT4=
EXTT5=
EXTT6=
EXTT7=
PLAYORDER=
